<?xml version="1.0" standalone="no"?>
<!DOCTYPE svg PUBLIC "-//W3C//DTD SVG 20010904//EN"
 "http://www.w3.org/TR/2001/REC-SVG-20010904/DTD/svg10.dtd">
<svg version="1.0" xmlns="http://www.w3.org/2000/svg"
 width="1080.000000pt" height="1080.000000pt" viewBox="0 0 1080.000000 1080.000000"
 preserveAspectRatio="xMidYMid meet">
<metadata>
Created by potrace 1.11, written by Peter Selinger 2001-2013
</metadata>
<g transform="translate(0.000000,1080.000000) scale(0.100000,-0.100000)"
fill="#000000" stroke="none">
<path d="M139 8587 c0 -7 -1 -645 -2 -1420 l-2 -1407 30 -1 c17 0 480 -1 1030
0 550 0 1009 -2 1021 -4 19 -4 20 -11 19 -132 0 -70 3 -134 8 -140 5 -7 6 -13
1 -13 -10 0 -11 -690 -1 -706 3 -6 3 -14 0 -18 -10 -10 -10 -226 0 -226 5 0 5
-5 1 -12 -4 -6 -8 -156 -8 -332 l-1 -321 -1113 0 -1112 0 0 -338 0 -337 2618
-1 c1439 0 2646 0 2682 1 36 1 72 2 80 1 8 0 44 0 80 0 36 1 72 1 80 0 8 0 44
0 80 0 36 1 72 1 80 0 8 0 44 0 80 0 36 1 71 1 78 0 6 0 18 -1 25 -2 6 0 47 0
90 1 72 2 80 1 95 -21 54 -74 412 -613 412 -619 0 -5 4 -10 8 -12 10 -4 92
-128 92 -138 0 -5 4 -10 8 -12 5 -1 34 -42 66 -90 l57 -87 42 27 c138 89 433
288 435 295 2 4 9 7 15 7 7 1 24 11 39 23 l27 22 -140 210 c-77 116 -146 218
-154 228 -8 9 -15 19 -15 21 0 3 -21 35 -46 73 l-46 68 54 5 c29 3 58 3 65 0
7 -3 44 -3 83 0 39 3 75 3 80 0 5 -3 41 -3 80 0 39 3 75 3 80 0 5 -3 41 -3 80
0 39 3 75 3 80 0 5 -3 41 -3 80 0 39 3 75 3 80 0 4 -3 717 -4 1584 -2 l1576 2
0 335 c0 261 -3 335 -12 336 -7 0 -526 0 -1153 1 l-1140 0 0 2372 0 2372 -336
0 -336 1 -1 -2356 c0 -1296 -1 -2363 -1 -2372 -1 -15 -44 -17 -499 -17 l-497
0 1 2373 1 2374 -1388 0 c-1100 1 -1388 -2 -1391 -12 -2 -6 -3 -1075 -3 -2373
l1 -2362 -568 0 -568 0 0 1289 0 1289 -1050 0 -1049 0 0 748 0 749 1047 0
1047 0 3 336 2 336 -1385 0 c-1079 0 -1385 -2 -1386 -12z m6012 -671 c4 -41 3
-3646 -1 -3646 -3 0 -45 61 -94 136 -92 139 -104 153 -115 137 -3 -5 -46 -35
-95 -67 -49 -32 -94 -62 -100 -67 -6 -5 -83 -57 -171 -115 -88 -58 -163 -109
-168 -113 -4 -4 8 -27 26 -52 19 -24 36 -48 38 -54 2 -5 34 -56 72 -112 37
-56 67 -104 67 -106 0 -3 -202 -5 -449 -5 l-449 0 3 27 c2 14 4 28 5 31 2 3 1
10 0 15 -7 28 -4 825 3 825 5 0 5 5 1 12 -10 16 -11 869 -1 875 4 3 4 10 0 16
-10 14 -9 214 0 223 4 4 4 11 0 17 -9 15 -9 777 0 777 5 0 5 5 1 12 -10 16
-11 869 -1 875 4 3 4 10 0 16 -10 14 -9 209 1 225 3 6 3 13 -2 15 -6 4 -7 43
-3 103 1 15 1431 15 1432 0z"/>
</g>
</svg>
